<svg width="40" height="40" viewBox="0 0 40 40" fill="none" xmlns="http://www.w3.org/2000/svg">
<path fill-rule="evenodd" clip-rule="evenodd" d="M0 20C0 8.95431 8.95431 0 20 0C31.0457 0 40 8.95431 40 20C40 31.0457 31.0457 40 20 40C8.95431 40 0 31.0457 0 20ZM16.34 19.4286V21.6H19.9439C19.7987 22.5319 18.8546 24.3324 16.34 24.3324C14.1704 24.3324 12.4003 22.541 12.4003 20.3333C12.4003 18.1257 14.1704 16.3343 16.34 16.3343C17.5746 16.3343 18.4007 16.859 18.8727 17.3114L20.5975 15.6557C19.49 14.6243 18.0557 14 16.34 14C12.8269 14 9.98557 16.8319 9.98557 20.3333C9.98557 23.8348 12.8269 26.6667 16.34 26.6667C20.0075 26.6667 22.4403 24.0971 22.4403 20.4781C22.4403 20.0619 22.3949 19.7452 22.3404 19.4286H16.34ZM28.1412 19.4286H29.9567V21.2381H28.1412V23.0476H26.3256V21.2381H24.51V19.4286H26.3256V17.619H28.1412V19.4286Z" fill="white"/>
</svg>
